<svg xmlns="http://www.w3.org/2000/svg" xmlns:xlink="http://www.w3.org/1999/xlink" xmlns:lucid="lucid" width="1500" height="1350"><g transform="translate(-320 -20)" lucid:page-tab-id="0_0"><path d="M340 48c0-4.42 3.58-8 8-8h1444c4.42 0 8 3.58 8 8v1294c0 4.42-3.58 8-8 8H348c-4.42 0-8-3.58-8-8z" stroke="#333" fill="#fff"/><use xlink:href="#a" transform="matrix(1,0,0,1,348,48) translate(0 14.4)"/><path d="M380 438c0-4.42 3.58-8 8-8h244c4.42 0 8 3.58 8 8v844c0 4.42-3.58 8-8 8H388c-4.42 0-8-3.58-8-8z" stroke="#333" fill="#b8f5ed"/><use xlink:href="#b" transform="matrix(1,0,0,1,388,438) translate(0 14.4)"/><path d="M940 438c0-4.42 3.58-8 8-8h244c4.42 0 8 3.58 8 8v844c0 4.42-3.58 8-8 8H948c-4.42 0-8-3.58-8-8z" stroke="#333" fill="#b8f5ed"/><use xlink:href="#c" transform="matrix(1,0,0,1,948,438) translate(0 14.4)"/><path d="M1220 438c0-4.42 3.58-8 8-8h244c4.42 0 8 3.58 8 8v844c0 4.42-3.58 8-8 8h-244c-4.42 0-8-3.58-8-8z" stroke="#333" fill="#b8f5ed"/><use xlink:href="#d" transform="matrix(1,0,0,1,1228,438) translate(0 14.4)"/><path d="M1500 438c0-4.42 3.58-8 8-8h244c4.42 0 8 3.58 8 8v844c0 4.42-3.58 8-8 8h-244c-4.42 0-8-3.58-8-8z" stroke="#333" fill="#b8f5ed"/><use xlink:href="#e" transform="matrix(1,0,0,1,1508,438) translate(0 14.4)"/><path d="M400 498c0-4.42 3.58-8 8-8h204c4.42 0 8 3.58 8 8v24c0 4.42-3.58 8-8 8H408c-4.42 0-8-3.58-8-8z" stroke="#fff" fill="#635dff"/><use xlink:href="#f" transform="matrix(1,0,0,1,408,498) translate(54.574999999999996 15.6)"/><path d="M400 558c0-4.42 3.58-8 8-8h204c4.42 0 8 3.58 8 8v24c0 4.42-3.58 8-8 8H408c-4.42 0-8-3.58-8-8z" stroke="#fff" fill="#635dff"/><use xlink:href="#g" transform="matrix(1,0,0,1,408,558) translate(66.025 15.6)"/><path d="M400 618c0-4.42 3.58-8 8-8h204c4.42 0 8 3.58 8 8v24c0 4.42-3.58 8-8 8H408c-4.42 0-8-3.58-8-8z" stroke="#fff" fill="#635dff"/><use xlink:href="#h" transform="matrix(1,0,0,1,408,618) translate(24.599999999999994 15.6)"/><path d="M400 678c0-4.42 3.58-8 8-8h204c4.42 0 8 3.58 8 8v24c0 4.42-3.58 8-8 8H408c-4.42 0-8-3.58-8-8z" stroke="#fff" fill="#635dff"/><use xlink:href="#i" transform="matrix(1,0,0,1,408,678) translate(73.525 15.6)"/><path d="M400 738c0-4.42 3.58-8 8-8h204c4.42 0 8 3.58 8 8v24c0 4.42-3.58 8-8 8H408c-4.42 0-8-3.58-8-8z" stroke="#fff" fill="#635dff"/><use xlink:href="#j" transform="matrix(1,0,0,1,408,738) translate(12.599999999999994 15.6)"/><path d="M400 798c0-4.42 3.58-8 8-8h204c4.42 0 8 3.58 8 8v24c0 4.42-3.58 8-8 8H408c-4.42 0-8-3.58-8-8z" stroke="#fff" fill="#635dff"/><use xlink:href="#k" transform="matrix(1,0,0,1,408,798.0000000000001) translate(46.574999999999996 15.6)"/><path d="M400 858c0-4.42 3.58-8 8-8h204c4.42 0 8 3.58 8 8v24c0 4.42-3.58 8-8 8H408c-4.42 0-8-3.58-8-8z" stroke="#fff" fill="#635dff"/><use xlink:href="#l" transform="matrix(1,0,0,1,408,857.9999999999999) translate(0.1250000000000142 15.6)"/><path d="M400 918c0-4.42 3.58-8 8-8h204c4.42 0 8 3.58 8 8v24c0 4.42-3.58 8-8 8H408c-4.42 0-8-3.58-8-8z" stroke="#fff" fill="#635dff"/><use xlink:href="#m" transform="matrix(1,0,0,1,408,918) translate(27.099999999999994 15.6)"/><path d="M400 978c0-4.42 3.58-8 8-8h204c4.42 0 8 3.58 8 8v24c0 4.42-3.58 8-8 8H408c-4.42 0-8-3.58-8-8z" stroke="#fff" fill="#635dff"/><use xlink:href="#n" transform="matrix(1,0,0,1,408,978) translate(41.099999999999994 15.6)"/><path d="M400 1038c0-4.42 3.58-8 8-8h204c4.42 0 8 3.58 8 8v24c0 4.42-3.58 8-8 8H408c-4.42 0-8-3.58-8-8z" stroke="#fff" fill="#635dff"/><use xlink:href="#o" transform="matrix(1,0,0,1,408,1038) translate(72.075 15.6)"/><path d="M400 1098c0-4.42 3.58-8 8-8h204c4.42 0 8 3.58 8 8v24c0 4.42-3.58 8-8 8H408c-4.42 0-8-3.58-8-8z" stroke="#fff" fill="#635dff"/><use xlink:href="#p" transform="matrix(1,0,0,1,408,1098) translate(73.025 15.6)"/><path d="M400 1158c0-4.42 3.58-8 8-8h204c4.42 0 8 3.58 8 8v24c0 4.42-3.58 8-8 8H408c-4.42 0-8-3.58-8-8z" stroke="#fff" fill="#635dff"/><use xlink:href="#q" transform="matrix(1,0,0,1,408,1158) translate(49.574999999999996 15.6)"/><path d="M660 438c0-4.42 3.58-8 8-8h244c4.42 0 8 3.58 8 8v844c0 4.42-3.58 8-8 8H668c-4.42 0-8-3.58-8-8z" stroke="#333" fill="#b8f5ed"/><use xlink:href="#r" transform="matrix(1,0,0,1,668,438) translate(0 14.4)"/><path d="M680 498c0-4.42 3.58-8 8-8h204c4.42 0 8 3.58 8 8v24c0 4.42-3.58 8-8 8H688c-4.42 0-8-3.58-8-8z" stroke="#fff" fill="#635dff"/><use xlink:href="#f" transform="matrix(1,0,0,1,688,498) translate(54.574999999999996 15.6)"/><path d="M680 558c0-4.42 3.58-8 8-8h204c4.42 0 8 3.58 8 8v24c0 4.42-3.58 8-8 8H688c-4.42 0-8-3.58-8-8z" stroke="#fff" fill="#635dff"/><use xlink:href="#g" transform="matrix(1,0,0,1,688,558) translate(66.025 15.6)"/><path d="M680 618c0-4.42 3.58-8 8-8h204c4.42 0 8 3.58 8 8v24c0 4.42-3.58 8-8 8H688c-4.42 0-8-3.58-8-8z" stroke="#fff" fill="#635dff"/><use xlink:href="#h" transform="matrix(1,0,0,1,688,618) translate(24.599999999999994 15.6)"/><path d="M680 678c0-4.42 3.58-8 8-8h204c4.42 0 8 3.58 8 8v24c0 4.42-3.58 8-8 8H688c-4.42 0-8-3.58-8-8z" stroke="#fff" fill="#635dff"/><use xlink:href="#i" transform="matrix(1,0,0,1,688,678) translate(73.525 15.6)"/><path d="M680 738c0-4.42 3.58-8 8-8h204c4.42 0 8 3.58 8 8v24c0 4.42-3.58 8-8 8H688c-4.42 0-8-3.58-8-8z" stroke="#fff" fill="#635dff"/><use xlink:href="#j" transform="matrix(1,0,0,1,688,738) translate(12.599999999999994 15.6)"/><path d="M680 798c0-4.42 3.58-8 8-8h204c4.42 0 8 3.58 8 8v24c0 4.42-3.58 8-8 8H688c-4.42 0-8-3.58-8-8z" stroke="#fff" fill="#635dff"/><use xlink:href="#k" transform="matrix(1,0,0,1,688,798.0000000000001) translate(46.574999999999996 15.6)"/><path d="M680 1038c0-4.42 3.58-8 8-8h204c4.42 0 8 3.58 8 8v24c0 4.42-3.58 8-8 8H688c-4.42 0-8-3.58-8-8z" stroke="#fff" fill="#635dff"/><use xlink:href="#o" transform="matrix(1,0,0,1,688,1038) translate(72.075 15.6)"/><path d="M680 1098c0-4.42 3.58-8 8-8h204c4.42 0 8 3.58 8 8v24c0 4.42-3.58 8-8 8H688c-4.42 0-8-3.58-8-8z" stroke="#fff" fill="#635dff"/><use xlink:href="#p" transform="matrix(1,0,0,1,688,1098) translate(73.025 15.6)"/><path d="M680 1158c0-4.42 3.58-8 8-8h204c4.42 0 8 3.58 8 8v24c0 4.42-3.58 8-8 8H688c-4.42 0-8-3.58-8-8z" stroke="#fff" fill="#635dff"/><use xlink:href="#q" transform="matrix(1,0,0,1,688,1158) translate(49.574999999999996 15.6)"/><path d="M680 918c0-4.42 3.58-8 8-8h204c4.42 0 8 3.58 8 8v24c0 4.42-3.58 8-8 8H688c-4.42 0-8-3.58-8-8z" stroke="#fff" fill="#635dff"/><use xlink:href="#m" transform="matrix(1,0,0,1,688,918) translate(27.099999999999994 15.6)"/><path d="M680 978c0-4.42 3.58-8 8-8h204c4.42 0 8 3.58 8 8v24c0 4.42-3.58 8-8 8H688c-4.42 0-8-3.58-8-8z" stroke="#fff" fill="#635dff"/><use xlink:href="#n" transform="matrix(1,0,0,1,688,978) translate(41.099999999999994 15.6)"/><path d="M960 798c0-4.42 3.58-8 8-8h204c4.42 0 8 3.58 8 8v24c0 4.42-3.58 8-8 8H968c-4.42 0-8-3.58-8-8z" stroke="#fff" fill="#635dff"/><use xlink:href="#k" transform="matrix(1,0,0,1,968,798.0000000000001) translate(46.574999999999996 15.6)"/><path d="M960 858c0-4.42 3.58-8 8-8h204c4.42 0 8 3.58 8 8v24c0 4.42-3.58 8-8 8H968c-4.42 0-8-3.58-8-8z" stroke="#fff" fill="#635dff"/><use xlink:href="#s" transform="matrix(1,0,0,1,968,858.0000000000001) translate(28.575000000000003 15.6)"/><path d="M960 618c0-4.42 3.58-8 8-8h204c4.42 0 8 3.58 8 8v24c0 4.42-3.58 8-8 8H968c-4.42 0-8-3.58-8-8z" stroke="#fff" fill="#635dff"/><use xlink:href="#h" transform="matrix(1,0,0,1,968,618.0000000000001) translate(24.599999999999994 15.6)"/><path d="M960 738c0-4.42 3.58-8 8-8h204c4.42 0 8 3.58 8 8v24c0 4.42-3.58 8-8 8H968c-4.42 0-8-3.58-8-8z" stroke="#fff" fill="#635dff"/><use xlink:href="#t" transform="matrix(1,0,0,1,968,738.0000000000001) translate(14.600000000000009 15.6)"/><path d="M960 1038c0-4.42 3.58-8 8-8h204c4.42 0 8 3.58 8 8v24c0 4.42-3.58 8-8 8H968c-4.42 0-8-3.58-8-8z" stroke="#fff" fill="#635dff"/><use xlink:href="#u" transform="matrix(1,0,0,1,968,1038) translate(56.574999999999996 15.6)"/><path d="M960 478c0-4.42 3.58-8 8-8h204c4.42 0 8 3.58 8 8v24c0 4.42-3.58 8-8 8H968c-4.42 0-8-3.58-8-8z" stroke="#fff" fill="#635dff"/><use xlink:href="#v" transform="matrix(1,0,0,1,968,478.0000000000001) translate(6.1000000000000085 15.6)"/><path d="M1235 1038c0-4.42 3.58-8 8-8h204c4.42 0 8 3.58 8 8v24c0 4.42-3.58 8-8 8h-204c-4.42 0-8-3.58-8-8z" stroke="#fff" fill="#635dff"/><use xlink:href="#o" transform="matrix(1,0,0,1,1243,1038) translate(72.075 15.6)"/><path d="M1235 978c0-4.42 3.58-8 8-8h204c4.42 0 8 3.58 8 8v24c0 4.42-3.58 8-8 8h-204c-4.42 0-8-3.58-8-8z" stroke="#fff" fill="#635dff"/><use xlink:href="#n" transform="matrix(1,0,0,1,1243,978) translate(41.099999999999994 15.6)"/><path d="M1520 1038c0-4.42 3.58-8 8-8h204c4.42 0 8 3.58 8 8v24c0 4.42-3.58 8-8 8h-204c-4.42 0-8-3.58-8-8z" stroke="#fff" fill="#635dff"/><use xlink:href="#u" transform="matrix(1,0,0,1,1528,1038) translate(56.574999999999996 15.6)"/><path d="M819.75 169.75c0 10.9-8.84 19.75-19.75 19.75-10.9 0-19.75-8.84-19.75-19.75 0-10.9 8.84-19.75 19.75-19.75 10.9 0 19.75 8.84 19.75 19.75z" stroke="#333" stroke-width="4" fill="#282c33"/><path d="M800 189.5v47.3c0 4.42 1.92 11.03 4.28 14.76L840 308m-40-63.2L760 308m0-98.75h80" stroke="#333" stroke-width="4" fill="none"/><path d="M760 158c0-4.42 3.58-8 8-8h64c4.42 0 8 3.58 8 8v164c0 4.42-3.58 8-8 8h-64c-4.42 0-8-3.58-8-8z" fill="none"/><use xlink:href="#w" transform="matrix(1,0,0,1,680,308) translate(50.099999999999994 14.6)"/><path d="M1299.75 169.75c0 10.9-8.84 19.75-19.75 19.75-10.9 0-19.75-8.84-19.75-19.75 0-10.9 8.84-19.75 19.75-19.75 10.9 0 19.75 8.84 19.75 19.75z" stroke="#333" stroke-width="4" fill="#282c33"/><path d="M1280 189.5v47.3c0 4.42 1.92 11.03 4.28 14.76L1320 308m-40-63.2l-40 63.2m0-98.75h80" stroke="#333" stroke-width="4" fill="none"/><path d="M1240 158c0-4.42 3.58-8 8-8h64c4.42 0 8 3.58 8 8v164c0 4.42-3.58 8-8 8h-64c-4.42 0-8-3.58-8-8z" fill="none"/><use xlink:href="#x" transform="matrix(1,0,0,1,1160,308) translate(36.175 14.6)"/><path d="M554.1 240.5h-32.07l-3 .4-2.77 1.14-2.4 1.83-1.82 2.4-1.14 2.75-.4 3v161.1h-1V251.97l.42-3.2 1.24-3 2-2.6 2.6-2 3-1.25 3.2-.42h32.14zm243.86 0h-129.9v-1h129.9zM801.46 240.5h-3.5v-1h3.5z" stroke="#333" stroke-width=".05" fill="#333"/><path d="M510 427.88l-4.64-14.26h9.28z" fill="#333"/><path d="M510 429.5l-5.32-16.38h10.64zm-3.95-15.38l3.95 12.14 3.95-12.14z" stroke="#333" stroke-width=".05" fill="#333"/><use xlink:href="#y" transform="matrix(1,0,0,1,554.1026236281908,218.4) translate(4.055 14.4)"/><use xlink:href="#z" transform="matrix(1,0,0,1,554.1026236281908,218.4) translate(61.005 14.4)"/><use xlink:href="#A" transform="matrix(1,0,0,1,554.1026236281908,218.4) translate(0.005000000000002558 36)"/><use xlink:href="#B" transform="matrix(1,0,0,1,554.1026236281908,218.4) translate(65.005 36)"/><path d="M1070.5 413.12h-1v-148.9h1zm-9.26-173.2l3 1.24 1.92 1.47h-1.65l-.76-.6-2.76-1.13-3-.4H803v-1h255.03z" stroke="#333" stroke-width=".05" fill="#333"/><path d="M803.02 240.5h-3.5v-1h3.5z" stroke="#333" stroke-width=".05" fill="#333"/><path d="M1070 427.88l-4.64-14.26h9.28z" fill="#333"/><path d="M1070 429.5l-5.32-16.38h10.64zm-3.95-15.38l3.95 12.14 3.95-12.14z" stroke="#333" stroke-width=".05" fill="#333"/><use xlink:href="#C" transform="matrix(1,0,0,1,1046.525,242.63106240705537) translate(0.004999999999999005 14.4)"/><path d="M1283 240h115c6.63 0 12 5.37 12 12v106c0 6.63-5.37 12-12 12h-36c-6.63 0-12 5.37-12 12v31.12M1283.02 240h-3.5" stroke="#333" fill="none"/><path d="M1350 427.88l-4.64-14.26h9.28z" stroke="#333" fill="#333"/><use xlink:href="#y" transform="matrix(1,0,0,1,1418.0000000000002,255.75073126912244) translate(4.055 14.4)"/><use xlink:href="#z" transform="matrix(1,0,0,1,1418.0000000000002,255.75073126912244) translate(61.005 14.4)"/><use xlink:href="#A" transform="matrix(1,0,0,1,1418.0000000000002,255.75073126912244) translate(0.005000000000002558 36)"/><use xlink:href="#B" transform="matrix(1,0,0,1,1418.0000000000002,255.75073126912244) translate(65.005 36)"/><path d="M1283 240h301.02c6.62 0 12 5.37 12 12v115.02c0 6.63-5.38 12-12 12h-36c-6.63 0-12 5.38-12 12v31.12M1283.02 240h-3.5" stroke="#333" fill="none"/><path d="M1536.02 436.9l-4.64-14.26h9.27z" stroke="#333" fill="#333"/><path d="M960 1098c0-4.42 3.58-8 8-8h204c4.42 0 8 3.58 8 8v24c0 4.42-3.58 8-8 8H968c-4.42 0-8-3.58-8-8z" stroke="#fff" fill="#635dff"/><use xlink:href="#p" transform="matrix(1,0,0,1,968,1098) translate(73.025 15.6)"/><path d="M960 1158c0-4.42 3.58-8 8-8h204c4.42 0 8 3.58 8 8v24c0 4.42-3.58 8-8 8H968c-4.42 0-8-3.58-8-8z" stroke="#fff" fill="#635dff"/><use xlink:href="#q" transform="matrix(1,0,0,1,968,1158) translate(49.574999999999996 15.6)"/><path d="M960 1218c0-4.42 3.58-8 8-8h204c4.42 0 8 3.58 8 8v24c0 4.42-3.58 8-8 8H968c-4.42 0-8-3.58-8-8z" stroke="#fff" fill="#635dff"/><use xlink:href="#D" transform="matrix(1,0,0,1,968,1218) translate(20.049999999999997 15.6)"/><path d="M803.95 296.1L791.7 413.2M803.95 296.12l.05-.5" stroke="#333" fill="none"/><path d="M790.17 427.9l-3.13-14.68 9.22.96z" stroke="#333" fill="#333"/><use xlink:href="#y" transform="matrix(1,0,0,1,799.1234746476516,408.15152402785213) translate(0.005000000000002558 14.4)"/><use xlink:href="#E" transform="matrix(1,0,0,1,799.1234746476516,408.15152402785213) translate(56.955000000000005 14.4)"/><path d="M1119.94 242.28l-2.07 1.6-1.83 2.38-1.14 2.76-.4 3v161.1h-1V251.97l.42-3.2 1.24-3 2-2.6 2.6-2 .18-.08zm158.02-1.78h-44.07v-1h44.06zM1281.46 240.5h-3.5v-1h3.5z" stroke="#333" stroke-width=".05" fill="#333"/><path d="M1114 427.88l-4.64-14.26h9.28z" fill="#333"/><path d="M1114 429.5l-5.32-16.38h10.64zm-3.95-15.38l3.95 12.14 3.95-12.14z" stroke="#333" stroke-width=".05" fill="#333"/><use xlink:href="#y" transform="matrix(1,0,0,1,1119.943060793461,218.4) translate(4.055 14.4)"/><use xlink:href="#F" transform="matrix(1,0,0,1,1119.943060793461,218.4) translate(61.005 14.4)"/><use xlink:href="#A" transform="matrix(1,0,0,1,1119.943060793461,218.4) translate(0.005000000000002558 36)"/><use xlink:href="#B" transform="matrix(1,0,0,1,1119.943060793461,218.4) translate(65.005 36)"/><path d="M950.1 108.5H462.02l-3 .4-2.77 1.14-2.4 1.83-1.82 2.4-1.14 2.75-.4 3v293.1h-1V119.97l.42-3.2 1.24-3 2-2.6 2.6-2 3-1.25 3.2-.42H950.1zm321.14-.58l3 1.24 2.6 2 2 2.6 1.24 3 .42 3.2v27.54h-1v-27.47l-.4-3-1.14-2.77-1.83-2.4-2.4-1.82-2.75-1.15-3-.4H997.03v-1h271z" stroke="#333" stroke-width=".05" fill="#333"/><path d="M1280.5 148.05l-.4-.05h-.6v-.5h1z" fill="#333"/><path d="M1280.53 148.08l-.43-.06-.63.02v-.58h1.06zm-1-.57v.5l.57-.03.38.05v-.5z" stroke="#333" stroke-width=".05" fill="#333"/><path d="M450 427.88l-4.64-14.26h9.28z" fill="#333"/><path d="M450 429.5l-5.32-16.38h10.64zm-3.95-15.38l3.95 12.14 3.95-12.14z" stroke="#333" stroke-width=".05" fill="#333"/><g><use xlink:href="#C" transform="matrix(1,0,0,1,950.0887198294116,97.19933149936948) translate(0.004999999999999005 14.4)"/></g><defs><path fill="#333" d="M106-169C34-169 62-67 57 0H25v-261h32l-1 103c12-21 28-36 61-36 89 0 53 116 60 194h-32v-121c2-32-8-49-39-48" id="G"/><path fill="#333" d="M100-194c62-1 85 37 85 99 1 63-27 99-86 99S16-35 15-95c0-66 28-99 85-99zM99-20c44 1 53-31 53-75 0-43-8-75-51-75s-53 32-53 75 10 74 51 75" id="H"/><g id="a"><use transform="matrix(0.05,0,0,0.05,0,0)" xlink:href="#G"/><use transform="matrix(0.05,0,0,0.05,10,0)" xlink:href="#H"/><use transform="matrix(0.05,0,0,0.05,20,0)" xlink:href="#G"/></g><path fill="#333" d="M135-143c-3-34-86-38-87 0 15 53 115 12 119 90S17 21 10-45l28-5c4 36 97 45 98 0-10-56-113-15-118-90-4-57 82-63 122-42 12 7 21 19 24 35" id="I"/><path fill="#333" d="M115-194c55 1 70 41 70 98S169 2 115 4C84 4 66-9 55-30l1 105H24l-1-265h31l2 30c10-21 28-34 59-34zm-8 174c40 0 45-34 45-75s-6-73-45-74c-42 0-51 32-51 76 0 43 10 73 51 73" id="J"/><path fill="#333" d="M100-194c63 0 86 42 84 106H49c0 40 14 67 53 68 26 1 43-12 49-29l28 8c-11 28-37 45-77 45C44 4 14-33 15-96c1-61 26-98 85-98zm52 81c6-60-76-77-97-28-3 7-6 17-6 28h103" id="K"/><path fill="#333" d="M96-169c-40 0-48 33-48 73s9 75 48 75c24 0 41-14 43-38l32 2c-6 37-31 61-74 61-59 0-76-41-82-99-10-93 101-131 147-64 4 7 5 14 7 22l-32 3c-4-21-16-35-41-35" id="L"/><g id="b"><use transform="matrix(0.05,0,0,0.05,0,0)" xlink:href="#I"/><use transform="matrix(0.05,0,0,0.05,9,0)" xlink:href="#J"/><use transform="matrix(0.05,0,0,0.05,19,0)" xlink:href="#K"/><use transform="matrix(0.05,0,0,0.05,29,0)" xlink:href="#L"/></g><path fill="#333" d="M59-47c-2 24 18 29 38 22v24C64 9 27 4 27-40v-127H5v-23h24l9-43h21v43h35v23H59v120" id="M"/><path fill="#333" d="M141-36C126-15 110 5 73 4 37 3 15-17 15-53c-1-64 63-63 125-63 3-35-9-54-41-54-24 1-41 7-42 31l-33-3c5-37 33-52 76-52 45 0 72 20 72 64v82c-1 20 7 32 28 27v20c-31 9-61-2-59-35zM48-53c0 20 12 33 32 33 41-3 63-29 60-74-43 2-92-5-92 41" id="N"/><path fill="#333" d="M84 4C-5 8 30-112 23-190h32v120c0 31 7 50 39 49 72-2 45-101 50-169h31l1 190h-30c-1-10 1-25-2-33-11 22-28 36-60 37" id="O"/><g id="c"><use transform="matrix(0.05,0,0,0.05,0,0)" xlink:href="#I"/><use transform="matrix(0.05,0,0,0.05,9,0)" xlink:href="#M"/><use transform="matrix(0.05,0,0,0.05,14,0)" xlink:href="#N"/><use transform="matrix(0.05,0,0,0.05,24,0)" xlink:href="#M"/><use transform="matrix(0.05,0,0,0.05,29,0)" xlink:href="#O"/><use transform="matrix(0.05,0,0,0.05,39,0)" xlink:href="#I"/></g><path fill="#333" d="M24 0v-261h32V0H24" id="P"/><path fill="#333" d="M-5 72V49h209v23H-5" id="Q"/><g id="d"><use transform="matrix(0.05,0,0,0.05,0,0)" xlink:href="#P"/><use transform="matrix(0.05,0,0,0.05,3.95,0)" xlink:href="#H"/><use transform="matrix(0.05,0,0,0.05,13.949999999999998,0)" xlink:href="#L"/><use transform="matrix(0.05,0,0,0.05,22.95,0)" xlink:href="#N"/><use transform="matrix(0.05,0,0,0.05,32.95,0)" xlink:href="#P"/><use transform="matrix(0.05,0,0,0.05,36.900000000000006,0)" xlink:href="#Q"/><use transform="matrix(0.05,0,0,0.05,46.900000000000006,0)" xlink:href="#I"/><use transform="matrix(0.05,0,0,0.05,55.900000000000006,0)" xlink:href="#J"/><use transform="matrix(0.05,0,0,0.05,65.9,0)" xlink:href="#K"/><use transform="matrix(0.05,0,0,0.05,75.9,0)" xlink:href="#L"/></g><g id="e"><use transform="matrix(0.05,0,0,0.05,0,0)" xlink:href="#P"/><use transform="matrix(0.05,0,0,0.05,3.95,0)" xlink:href="#H"/><use transform="matrix(0.05,0,0,0.05,13.949999999999998,0)" xlink:href="#L"/><use transform="matrix(0.05,0,0,0.05,22.95,0)" xlink:href="#N"/><use transform="matrix(0.05,0,0,0.05,32.95,0)" xlink:href="#P"/><use transform="matrix(0.05,0,0,0.05,36.900000000000006,0)" xlink:href="#Q"/><use transform="matrix(0.05,0,0,0.05,46.900000000000006,0)" xlink:href="#I"/><use transform="matrix(0.05,0,0,0.05,55.900000000000006,0)" xlink:href="#M"/><use transform="matrix(0.05,0,0,0.05,60.900000000000006,0)" xlink:href="#N"/><use transform="matrix(0.05,0,0,0.05,70.9,0)" xlink:href="#M"/><use transform="matrix(0.05,0,0,0.05,75.9,0)" xlink:href="#O"/><use transform="matrix(0.05,0,0,0.05,85.9,0)" xlink:href="#I"/></g><path fill="#fff" d="M141-36C126-15 110 5 73 4 37 3 15-17 15-53c-1-64 63-63 125-63 3-35-9-54-41-54-24 1-41 7-42 31l-33-3c5-37 33-52 76-52 45 0 72 20 72 64v82c-1 20 7 32 28 27v20c-31 9-61-2-59-35zM48-53c0 20 12 33 32 33 41-3 63-29 60-74-43 2-92-5-92 41" id="R"/><path fill="#fff" d="M115-194c55 1 70 41 70 98S169 2 115 4C84 4 66-9 55-30l1 105H24l-1-265h31l2 30c10-21 28-34 59-34zm-8 174c40 0 45-34 45-75s-6-73-45-74c-42 0-51 32-51 76 0 43 10 73 51 73" id="S"/><path fill="#fff" d="M24 0v-261h32V0H24" id="T"/><path fill="#fff" d="M24-231v-30h32v30H24zM24 0v-190h32V0H24" id="U"/><path fill="#fff" d="M96-169c-40 0-48 33-48 73s9 75 48 75c24 0 41-14 43-38l32 2c-6 37-31 61-74 61-59 0-76-41-82-99-10-93 101-131 147-64 4 7 5 14 7 22l-32 3c-4-21-16-35-41-35" id="V"/><path fill="#fff" d="M59-47c-2 24 18 29 38 22v24C64 9 27 4 27-40v-127H5v-23h24l9-43h21v43h35v23H59v120" id="W"/><path fill="#fff" d="M100-194c62-1 85 37 85 99 1 63-27 99-86 99S16-35 15-95c0-66 28-99 85-99zM99-20c44 1 53-31 53-75 0-43-8-75-51-75s-53 32-53 75 10 74 51 75" id="X"/><path fill="#fff" d="M117-194c89-4 53 116 60 194h-32v-121c0-31-8-49-39-48C34-167 62-67 57 0H25l-1-190h30c1 10-1 24 2 32 11-22 29-35 61-36" id="Y"/><path fill="#fff" d="M135-143c-3-34-86-38-87 0 15 53 115 12 119 90S17 21 10-45l28-5c4 36 97 45 98 0-10-56-113-15-118-90-4-57 82-63 122-42 12 7 21 19 24 35" id="Z"/><g id="f"><use transform="matrix(0.05,0,0,0.05,0,0)" xlink:href="#R"/><use transform="matrix(0.05,0,0,0.05,10,0)" xlink:href="#S"/><use transform="matrix(0.05,0,0,0.05,20,0)" xlink:href="#S"/><use transform="matrix(0.05,0,0,0.05,30,0)" xlink:href="#T"/><use transform="matrix(0.05,0,0,0.05,33.95,0)" xlink:href="#U"/><use transform="matrix(0.05,0,0,0.05,37.900000000000006,0)" xlink:href="#V"/><use transform="matrix(0.05,0,0,0.05,46.900000000000006,0)" xlink:href="#R"/><use transform="matrix(0.05,0,0,0.05,56.900000000000006,0)" xlink:href="#W"/><use transform="matrix(0.05,0,0,0.05,61.900000000000006,0)" xlink:href="#U"/><use transform="matrix(0.05,0,0,0.05,65.85000000000001,0)" xlink:href="#X"/><use transform="matrix(0.05,0,0,0.05,75.85000000000001,0)" xlink:href="#Y"/><use transform="matrix(0.05,0,0,0.05,85.85000000000001,0)" xlink:href="#Z"/></g><path fill="#fff" d="M106-169C34-169 62-67 57 0H25v-261h32l-1 103c12-21 28-36 61-36 89 0 53 116 60 194h-32v-121c2-32-8-49-39-48" id="aa"/><path fill="#fff" d="M100-194c63 0 86 42 84 106H49c0 40 14 67 53 68 26 1 43-12 49-29l28 8c-11 28-37 45-77 45C44 4 14-33 15-96c1-61 26-98 85-98zm52 81c6-60-76-77-97-28-3 7-6 17-6 28h103" id="ab"/><g id="g"><use transform="matrix(0.05,0,0,0.05,0,0)" xlink:href="#V"/><use transform="matrix(0.05,0,0,0.05,9,0)" xlink:href="#aa"/><use transform="matrix(0.05,0,0,0.05,19,0)" xlink:href="#R"/><use transform="matrix(0.05,0,0,0.05,29,0)" xlink:href="#Y"/><use transform="matrix(0.05,0,0,0.05,39,0)" xlink:href="#Y"/><use transform="matrix(0.05,0,0,0.05,49,0)" xlink:href="#ab"/><use transform="matrix(0.05,0,0,0.05,59,0)" xlink:href="#T"/><use transform="matrix(0.05,0,0,0.05,62.95,0)" xlink:href="#Z"/></g><path fill="#fff" d="M84 4C-5 8 30-112 23-190h32v120c0 31 7 50 39 49 72-2 45-101 50-169h31l1 190h-30c-1-10 1-25-2-33-11 22-28 36-60 37" id="ac"/><path fill="#fff" d="M114-163C36-179 61-72 57 0H25l-1-190h30c1 12-1 29 2 39 6-27 23-49 58-41v29" id="ad"/><path fill="#fff" d="M85-194c31 0 48 13 60 33l-1-100h32l1 261h-30c-2-10 0-23-3-31C134-8 116 4 85 4 32 4 16-35 15-94c0-66 23-100 70-100zm9 24c-40 0-46 34-46 75 0 40 6 74 45 74 42 0 51-32 51-76 0-42-9-74-50-73" id="ae"/><path fill="#fff" d="M179-190L93 31C79 59 56 82 12 73V49c39 6 53-20 64-50L1-190h34L92-34l54-156h33" id="af"/><path fill="#fff" d="M210-169c-67 3-38 105-44 169h-31v-121c0-29-5-50-35-48C34-165 62-65 56 0H25l-1-190h30c1 10-1 24 2 32 10-44 99-50 107 0 11-21 27-35 58-36 85-2 47 119 55 194h-31v-121c0-29-5-49-35-48" id="ag"/><g id="h"><use transform="matrix(0.05,0,0,0.05,0,0)" xlink:href="#V"/><use transform="matrix(0.05,0,0,0.05,9,0)" xlink:href="#T"/><use transform="matrix(0.05,0,0,0.05,12.949999999999998,0)" xlink:href="#ac"/><use transform="matrix(0.05,0,0,0.05,22.95,0)" xlink:href="#Z"/><use transform="matrix(0.05,0,0,0.05,31.950000000000003,0)" xlink:href="#W"/><use transform="matrix(0.05,0,0,0.05,36.95,0)" xlink:href="#ab"/><use transform="matrix(0.05,0,0,0.05,46.95,0)" xlink:href="#ad"/><use transform="matrix(0.05,0,0,0.05,52.900000000000006,0)" xlink:href="#ae"/><use transform="matrix(0.05,0,0,0.05,62.900000000000006,0)" xlink:href="#ab"/><use transform="matrix(0.05,0,0,0.05,72.9,0)" xlink:href="#S"/><use transform="matrix(0.05,0,0,0.05,82.9,0)" xlink:href="#T"/><use transform="matrix(0.05,0,0,0.05,86.85000000000001,0)" xlink:href="#X"/><use transform="matrix(0.05,0,0,0.05,96.85000000000001,0)" xlink:href="#af"/><use transform="matrix(0.05,0,0,0.05,105.85000000000001,0)" xlink:href="#ag"/><use transform="matrix(0.05,0,0,0.05,120.80000000000001,0)" xlink:href="#ab"/><use transform="matrix(0.05,0,0,0.05,130.8,0)" xlink:href="#Y"/><use transform="matrix(0.05,0,0,0.05,140.8,0)" xlink:href="#W"/><use transform="matrix(0.05,0,0,0.05,145.8,0)" xlink:href="#Z"/></g><path fill="#fff" d="M101-234c-31-9-42 10-38 44h38v23H63V0H32v-167H5v-23h27c-7-52 17-82 69-68v24" id="ah"/><path fill="#fff" d="M177-190C167-65 218 103 67 71c-23-6-38-20-44-43l32-5c15 47 100 32 89-28v-30C133-14 115 1 83 1 29 1 15-40 15-95c0-56 16-97 71-98 29-1 48 16 59 35 1-10 0-23 2-32h30zM94-22c36 0 50-32 50-73 0-42-14-75-50-75-39 0-46 34-46 75s6 73 46 73" id="ai"/><g id="i"><use transform="matrix(0.05,0,0,0.05,0,0)" xlink:href="#V"/><use transform="matrix(0.05,0,0,0.05,9,0)" xlink:href="#X"/><use transform="matrix(0.05,0,0,0.05,19,0)" xlink:href="#Y"/><use transform="matrix(0.05,0,0,0.05,29,0)" xlink:href="#ah"/><use transform="matrix(0.05,0,0,0.05,34,0)" xlink:href="#U"/><use transform="matrix(0.05,0,0,0.05,37.95,0)" xlink:href="#ai"/><use transform="matrix(0.05,0,0,0.05,47.95,0)" xlink:href="#Z"/></g><path fill="#fff" d="M143 0L79-87 56-68V0H24v-261h32v163l83-92h37l-77 82L181 0h-38" id="aj"/><g id="j"><use transform="matrix(0.05,0,0,0.05,0,0)" xlink:href="#aj"/><use transform="matrix(0.05,0,0,0.05,9,0)" xlink:href="#T"/><use transform="matrix(0.05,0,0,0.05,12.949999999999998,0)" xlink:href="#ac"/><use transform="matrix(0.05,0,0,0.05,22.95,0)" xlink:href="#Z"/><use transform="matrix(0.05,0,0,0.05,31.950000000000003,0)" xlink:href="#W"/><use transform="matrix(0.05,0,0,0.05,36.95,0)" xlink:href="#ab"/><use transform="matrix(0.05,0,0,0.05,46.95,0)" xlink:href="#ad"/><use transform="matrix(0.05,0,0,0.05,52.900000000000006,0)" xlink:href="#T"/><use transform="matrix(0.05,0,0,0.05,56.85,0)" xlink:href="#ab"/><use transform="matrix(0.05,0,0,0.05,66.85000000000001,0)" xlink:href="#W"/><use transform="matrix(0.05,0,0,0.05,71.85000000000001,0)" xlink:href="#R"/><use transform="matrix(0.05,0,0,0.05,81.85000000000001,0)" xlink:href="#ae"/><use transform="matrix(0.05,0,0,0.05,91.85000000000001,0)" xlink:href="#ae"/><use transform="matrix(0.05,0,0,0.05,101.85000000000001,0)" xlink:href="#X"/><use transform="matrix(0.05,0,0,0.05,111.85000000000001,0)" xlink:href="#Y"/><use transform="matrix(0.05,0,0,0.05,121.85000000000001,0)" xlink:href="#V"/><use transform="matrix(0.05,0,0,0.05,130.85000000000002,0)" xlink:href="#X"/><use transform="matrix(0.05,0,0,0.05,140.85000000000002,0)" xlink:href="#Y"/><use transform="matrix(0.05,0,0,0.05,150.85000000000002,0)" xlink:href="#ah"/><use transform="matrix(0.05,0,0,0.05,155.85000000000002,0)" xlink:href="#U"/><use transform="matrix(0.05,0,0,0.05,159.8,0)" xlink:href="#ai"/><use transform="matrix(0.05,0,0,0.05,169.8,0)" xlink:href="#Z"/></g><g id="k"><use transform="matrix(0.05,0,0,0.05,0,0)" xlink:href="#ag"/><use transform="matrix(0.05,0,0,0.05,14.950000000000001,0)" xlink:href="#R"/><use transform="matrix(0.05,0,0,0.05,24.950000000000003,0)" xlink:href="#V"/><use transform="matrix(0.05,0,0,0.05,33.95,0)" xlink:href="#aa"/><use transform="matrix(0.05,0,0,0.05,43.95,0)" xlink:href="#U"/><use transform="matrix(0.05,0,0,0.05,47.900000000000006,0)" xlink:href="#Y"/><use transform="matrix(0.05,0,0,0.05,57.900000000000006,0)" xlink:href="#ab"/><use transform="matrix(0.05,0,0,0.05,67.9,0)" xlink:href="#S"/><use transform="matrix(0.05,0,0,0.05,77.9,0)" xlink:href="#X"/><use transform="matrix(0.05,0,0,0.05,87.9,0)" xlink:href="#X"/><use transform="matrix(0.05,0,0,0.05,97.9,0)" xlink:href="#T"/><use transform="matrix(0.05,0,0,0.05,101.85000000000001,0)" xlink:href="#Z"/></g><path fill="#fff" d="M-5 72V49h209v23H-5" id="ak"/><path fill="#fff" d="M115-194c53 0 69 39 70 98 0 66-23 100-70 100C84 3 66-7 56-30L54 0H23l1-261h32v101c10-23 28-34 59-34zm-8 174c40 0 45-34 45-75 0-40-5-75-45-74-42 0-51 32-51 76 0 43 10 73 51 73" id="al"/><g id="l"><use transform="matrix(0.05,0,0,0.05,0,0)" xlink:href="#ag"/><use transform="matrix(0.05,0,0,0.05,14.950000000000001,0)" xlink:href="#R"/><use transform="matrix(0.05,0,0,0.05,24.950000000000003,0)" xlink:href="#Y"/><use transform="matrix(0.05,0,0,0.05,34.95,0)" xlink:href="#R"/><use transform="matrix(0.05,0,0,0.05,44.95,0)" xlink:href="#ai"/><use transform="matrix(0.05,0,0,0.05,54.95,0)" xlink:href="#ab"/><use transform="matrix(0.05,0,0,0.05,64.95,0)" xlink:href="#ae"/><use transform="matrix(0.05,0,0,0.05,74.95,0)" xlink:href="#ak"/><use transform="matrix(0.05,0,0,0.05,84.95,0)" xlink:href="#V"/><use transform="matrix(0.05,0,0,0.05,93.95,0)" xlink:href="#T"/><use transform="matrix(0.05,0,0,0.05,97.9,0)" xlink:href="#ac"/><use transform="matrix(0.05,0,0,0.05,107.9,0)" xlink:href="#Z"/><use transform="matrix(0.05,0,0,0.05,116.9,0)" xlink:href="#W"/><use transform="matrix(0.05,0,0,0.05,121.9,0)" xlink:href="#ab"/><use transform="matrix(0.05,0,0,0.05,131.9,0)" xlink:href="#ad"/><use transform="matrix(0.05,0,0,0.05,137.85,0)" xlink:href="#Z"/><use transform="matrix(0.05,0,0,0.05,146.85,0)" xlink:href="#ak"/><use transform="matrix(0.05,0,0,0.05,156.85,0)" xlink:href="#T"/><use transform="matrix(0.05,0,0,0.05,160.79999999999998,0)" xlink:href="#R"/><use transform="matrix(0.05,0,0,0.05,170.79999999999998,0)" xlink:href="#al"/><use transform="matrix(0.05,0,0,0.05,180.79999999999998,0)" xlink:href="#ab"/><use transform="matrix(0.05,0,0,0.05,190.79999999999998,0)" xlink:href="#T"/><use transform="matrix(0.05,0,0,0.05,194.74999999999997,0)" xlink:href="#Z"/></g><g id="m"><use transform="matrix(0.05,0,0,0.05,0,0)" xlink:href="#S"/><use transform="matrix(0.05,0,0,0.05,10,0)" xlink:href="#T"/><use transform="matrix(0.05,0,0,0.05,13.949999999999998,0)" xlink:href="#R"/><use transform="matrix(0.05,0,0,0.05,23.95,0)" xlink:href="#V"/><use transform="matrix(0.05,0,0,0.05,32.95,0)" xlink:href="#ab"/><use transform="matrix(0.05,0,0,0.05,42.95,0)" xlink:href="#ag"/><use transform="matrix(0.05,0,0,0.05,57.900000000000006,0)" xlink:href="#ab"/><use transform="matrix(0.05,0,0,0.05,67.9,0)" xlink:href="#Y"/><use transform="matrix(0.05,0,0,0.05,77.9,0)" xlink:href="#W"/><use transform="matrix(0.05,0,0,0.05,82.9,0)" xlink:href="#al"/><use transform="matrix(0.05,0,0,0.05,92.9,0)" xlink:href="#U"/><use transform="matrix(0.05,0,0,0.05,96.85000000000001,0)" xlink:href="#Y"/><use transform="matrix(0.05,0,0,0.05,106.85000000000001,0)" xlink:href="#ae"/><use transform="matrix(0.05,0,0,0.05,116.85000000000001,0)" xlink:href="#U"/><use transform="matrix(0.05,0,0,0.05,120.80000000000001,0)" xlink:href="#Y"/><use transform="matrix(0.05,0,0,0.05,130.8,0)" xlink:href="#ai"/><use transform="matrix(0.05,0,0,0.05,140.8,0)" xlink:href="#Z"/></g><g id="n"><use transform="matrix(0.05,0,0,0.05,0,0)" xlink:href="#S"/><use transform="matrix(0.05,0,0,0.05,10,0)" xlink:href="#T"/><use transform="matrix(0.05,0,0,0.05,13.949999999999998,0)" xlink:href="#R"/><use transform="matrix(0.05,0,0,0.05,23.95,0)" xlink:href="#V"/><use transform="matrix(0.05,0,0,0.05,32.95,0)" xlink:href="#ab"/><use transform="matrix(0.05,0,0,0.05,42.95,0)" xlink:href="#ag"/><use transform="matrix(0.05,0,0,0.05,57.900000000000006,0)" xlink:href="#ab"/><use transform="matrix(0.05,0,0,0.05,67.9,0)" xlink:href="#Y"/><use transform="matrix(0.05,0,0,0.05,77.9,0)" xlink:href="#W"/><use transform="matrix(0.05,0,0,0.05,82.9,0)" xlink:href="#ad"/><use transform="matrix(0.05,0,0,0.05,88.85000000000001,0)" xlink:href="#ac"/><use transform="matrix(0.05,0,0,0.05,98.85000000000001,0)" xlink:href="#T"/><use transform="matrix(0.05,0,0,0.05,102.80000000000001,0)" xlink:href="#ab"/><use transform="matrix(0.05,0,0,0.05,112.80000000000001,0)" xlink:href="#Z"/></g><g id="o"><use transform="matrix(0.05,0,0,0.05,0,0)" xlink:href="#S"/><use transform="matrix(0.05,0,0,0.05,10,0)" xlink:href="#X"/><use transform="matrix(0.05,0,0,0.05,20,0)" xlink:href="#T"/><use transform="matrix(0.05,0,0,0.05,23.95,0)" xlink:href="#U"/><use transform="matrix(0.05,0,0,0.05,27.899999999999995,0)" xlink:href="#V"/><use transform="matrix(0.05,0,0,0.05,36.9,0)" xlink:href="#U"/><use transform="matrix(0.05,0,0,0.05,40.85,0)" xlink:href="#ab"/><use transform="matrix(0.05,0,0,0.05,50.85,0)" xlink:href="#Z"/></g><g id="p"><use transform="matrix(0.05,0,0,0.05,0,0)" xlink:href="#Z"/><use transform="matrix(0.05,0,0,0.05,9,0)" xlink:href="#ab"/><use transform="matrix(0.05,0,0,0.05,19,0)" xlink:href="#V"/><use transform="matrix(0.05,0,0,0.05,28,0)" xlink:href="#ad"/><use transform="matrix(0.05,0,0,0.05,33.95,0)" xlink:href="#ab"/><use transform="matrix(0.05,0,0,0.05,43.95,0)" xlink:href="#W"/><use transform="matrix(0.05,0,0,0.05,48.95,0)" xlink:href="#Z"/></g><g id="q"><use transform="matrix(0.05,0,0,0.05,0,0)" xlink:href="#Z"/><use transform="matrix(0.05,0,0,0.05,9,0)" xlink:href="#ac"/><use transform="matrix(0.05,0,0,0.05,19,0)" xlink:href="#al"/><use transform="matrix(0.05,0,0,0.05,29,0)" xlink:href="#Z"/><use transform="matrix(0.05,0,0,0.05,38,0)" xlink:href="#V"/><use transform="matrix(0.05,0,0,0.05,47,0)" xlink:href="#ad"/><use transform="matrix(0.05,0,0,0.05,52.95,0)" xlink:href="#U"/><use transform="matrix(0.05,0,0,0.05,56.900000000000006,0)" xlink:href="#S"/><use transform="matrix(0.05,0,0,0.05,66.9,0)" xlink:href="#W"/><use transform="matrix(0.05,0,0,0.05,71.9,0)" xlink:href="#U"/><use transform="matrix(0.05,0,0,0.05,75.85000000000001,0)" xlink:href="#X"/><use transform="matrix(0.05,0,0,0.05,85.85000000000001,0)" xlink:href="#Y"/><use transform="matrix(0.05,0,0,0.05,95.85000000000001,0)" xlink:href="#Z"/></g><path fill="#333" d="M24-231v-30h32v30H24zM24 0v-190h32V0H24" id="am"/><path fill="#333" d="M114-163C36-179 61-72 57 0H25l-1-190h30c1 12-1 29 2 39 6-27 23-49 58-41v29" id="an"/><path fill="#333" d="M179-190L93 31C79 59 56 82 12 73V49c39 6 53-20 64-50L1-190h34L92-34l54-156h33" id="ao"/><g id="r"><use transform="matrix(0.05,0,0,0.05,0,0)" xlink:href="#G"/><use transform="matrix(0.05,0,0,0.05,10,0)" xlink:href="#am"/><use transform="matrix(0.05,0,0,0.05,13.949999999999998,0)" xlink:href="#I"/><use transform="matrix(0.05,0,0,0.05,22.95,0)" xlink:href="#M"/><use transform="matrix(0.05,0,0,0.05,27.950000000000003,0)" xlink:href="#H"/><use transform="matrix(0.05,0,0,0.05,37.95,0)" xlink:href="#an"/><use transform="matrix(0.05,0,0,0.05,43.900000000000006,0)" xlink:href="#ao"/></g><g id="s"><use transform="matrix(0.05,0,0,0.05,0,0)" xlink:href="#ag"/><use transform="matrix(0.05,0,0,0.05,14.950000000000001,0)" xlink:href="#R"/><use transform="matrix(0.05,0,0,0.05,24.950000000000003,0)" xlink:href="#Y"/><use transform="matrix(0.05,0,0,0.05,34.95,0)" xlink:href="#R"/><use transform="matrix(0.05,0,0,0.05,44.95,0)" xlink:href="#ai"/><use transform="matrix(0.05,0,0,0.05,54.95,0)" xlink:href="#ab"/><use transform="matrix(0.05,0,0,0.05,64.95,0)" xlink:href="#ae"/><use transform="matrix(0.05,0,0,0.05,74.95,0)" xlink:href="#ak"/><use transform="matrix(0.05,0,0,0.05,84.95,0)" xlink:href="#V"/><use transform="matrix(0.05,0,0,0.05,93.95,0)" xlink:href="#T"/><use transform="matrix(0.05,0,0,0.05,97.9,0)" xlink:href="#ac"/><use transform="matrix(0.05,0,0,0.05,107.9,0)" xlink:href="#Z"/><use transform="matrix(0.05,0,0,0.05,116.9,0)" xlink:href="#W"/><use transform="matrix(0.05,0,0,0.05,121.9,0)" xlink:href="#ab"/><use transform="matrix(0.05,0,0,0.05,131.9,0)" xlink:href="#ad"/><use transform="matrix(0.05,0,0,0.05,137.85,0)" xlink:href="#Z"/></g><g id="t"><use transform="matrix(0.05,0,0,0.05,0,0)" xlink:href="#aj"/><use transform="matrix(0.05,0,0,0.05,9,0)" xlink:href="#T"/><use transform="matrix(0.05,0,0,0.05,12.949999999999998,0)" xlink:href="#ac"/><use transform="matrix(0.05,0,0,0.05,22.95,0)" xlink:href="#Z"/><use transform="matrix(0.05,0,0,0.05,31.950000000000003,0)" xlink:href="#W"/><use transform="matrix(0.05,0,0,0.05,36.95,0)" xlink:href="#ab"/><use transform="matrix(0.05,0,0,0.05,46.95,0)" xlink:href="#ad"/><use transform="matrix(0.05,0,0,0.05,52.900000000000006,0)" xlink:href="#R"/><use transform="matrix(0.05,0,0,0.05,62.900000000000006,0)" xlink:href="#ae"/><use transform="matrix(0.05,0,0,0.05,72.9,0)" xlink:href="#ae"/><use transform="matrix(0.05,0,0,0.05,82.9,0)" xlink:href="#X"/><use transform="matrix(0.05,0,0,0.05,92.9,0)" xlink:href="#Y"/><use transform="matrix(0.05,0,0,0.05,102.9,0)" xlink:href="#V"/><use transform="matrix(0.05,0,0,0.05,111.9,0)" xlink:href="#X"/><use transform="matrix(0.05,0,0,0.05,121.9,0)" xlink:href="#Y"/><use transform="matrix(0.05,0,0,0.05,131.9,0)" xlink:href="#ag"/><use transform="matrix(0.05,0,0,0.05,146.85,0)" xlink:href="#ah"/><use transform="matrix(0.05,0,0,0.05,151.85,0)" xlink:href="#U"/><use transform="matrix(0.05,0,0,0.05,155.79999999999998,0)" xlink:href="#ai"/><use transform="matrix(0.05,0,0,0.05,165.79999999999998,0)" xlink:href="#Z"/></g><g id="u"><use transform="matrix(0.05,0,0,0.05,0,0)" xlink:href="#V"/><use transform="matrix(0.05,0,0,0.05,9,0)" xlink:href="#X"/><use transform="matrix(0.05,0,0,0.05,19,0)" xlink:href="#ag"/><use transform="matrix(0.05,0,0,0.05,33.95,0)" xlink:href="#S"/><use transform="matrix(0.05,0,0,0.05,43.95,0)" xlink:href="#T"/><use transform="matrix(0.05,0,0,0.05,47.900000000000006,0)" xlink:href="#U"/><use transform="matrix(0.05,0,0,0.05,51.85,0)" xlink:href="#R"/><use transform="matrix(0.05,0,0,0.05,61.85,0)" xlink:href="#Y"/><use transform="matrix(0.05,0,0,0.05,71.85000000000001,0)" xlink:href="#V"/><use transform="matrix(0.05,0,0,0.05,80.85000000000001,0)" xlink:href="#ab"/></g><g id="v"><use transform="matrix(0.05,0,0,0.05,0,0)" xlink:href="#R"/><use transform="matrix(0.05,0,0,0.05,10,0)" xlink:href="#ai"/><use transform="matrix(0.05,0,0,0.05,20,0)" xlink:href="#ai"/><use transform="matrix(0.05,0,0,0.05,30,0)" xlink:href="#ad"/><use transform="matrix(0.05,0,0,0.05,35.95,0)" xlink:href="#ab"/><use transform="matrix(0.05,0,0,0.05,45.95,0)" xlink:href="#ai"/><use transform="matrix(0.05,0,0,0.05,55.95,0)" xlink:href="#R"/><use transform="matrix(0.05,0,0,0.05,65.95,0)" xlink:href="#W"/><use transform="matrix(0.05,0,0,0.05,70.95,0)" xlink:href="#ab"/><use transform="matrix(0.05,0,0,0.05,80.95,0)" xlink:href="#ae"/><use transform="matrix(0.05,0,0,0.05,90.95,0)" xlink:href="#ak"/><use transform="matrix(0.05,0,0,0.05,100.95,0)" xlink:href="#V"/><use transform="matrix(0.05,0,0,0.05,109.95,0)" xlink:href="#X"/><use transform="matrix(0.05,0,0,0.05,119.95,0)" xlink:href="#ag"/><use transform="matrix(0.05,0,0,0.05,134.9,0)" xlink:href="#S"/><use transform="matrix(0.05,0,0,0.05,144.9,0)" xlink:href="#T"/><use transform="matrix(0.05,0,0,0.05,148.85,0)" xlink:href="#U"/><use transform="matrix(0.05,0,0,0.05,152.79999999999998,0)" xlink:href="#R"/><use transform="matrix(0.05,0,0,0.05,162.79999999999998,0)" xlink:href="#Y"/><use transform="matrix(0.05,0,0,0.05,172.79999999999998,0)" xlink:href="#V"/><use transform="matrix(0.05,0,0,0.05,181.79999999999998,0)" xlink:href="#ab"/></g><path fill="#333" d="M16-82v-28h88v28H16" id="ap"/><g id="w"><use transform="matrix(0.05,0,0,0.05,0,0)" xlink:href="#G"/><use transform="matrix(0.05,0,0,0.05,10,0)" xlink:href="#H"/><use transform="matrix(0.05,0,0,0.05,20,0)" xlink:href="#G"/><use transform="matrix(0.05,0,0,0.05,30,0)" xlink:href="#ap"/><use transform="matrix(0.05,0,0,0.05,35.95,0)" xlink:href="#J"/><use transform="matrix(0.05,0,0,0.05,45.95,0)" xlink:href="#an"/><use transform="matrix(0.05,0,0,0.05,51.900000000000006,0)" xlink:href="#H"/><use transform="matrix(0.05,0,0,0.05,61.900000000000006,0)" xlink:href="#L"/><use transform="matrix(0.05,0,0,0.05,70.9,0)" xlink:href="#K"/><use transform="matrix(0.05,0,0,0.05,80.9,0)" xlink:href="#I"/><use transform="matrix(0.05,0,0,0.05,89.9,0)" xlink:href="#I"/><use transform="matrix(0.05,0,0,0.05,98.9,0)" xlink:href="#ap"/><use transform="matrix(0.05,0,0,0.05,104.85000000000001,0)" xlink:href="#O"/><use transform="matrix(0.05,0,0,0.05,114.85000000000001,0)" xlink:href="#I"/><use transform="matrix(0.05,0,0,0.05,123.85000000000001,0)" xlink:href="#K"/><use transform="matrix(0.05,0,0,0.05,133.85000000000002,0)" xlink:href="#an"/></g><path fill="#333" d="M117-194c89-4 53 116 60 194h-32v-121c0-31-8-49-39-48C34-167 62-67 57 0H25l-1-190h30c1 10-1 24 2 32 11-22 29-35 61-36" id="aq"/><path fill="#333" d="M115-194c53 0 69 39 70 98 0 66-23 100-70 100C84 3 66-7 56-30L54 0H23l1-261h32v101c10-23 28-34 59-34zm-8 174c40 0 45-34 45-75 0-40-5-75-45-74-42 0-51 32-51 76 0 43 10 73 51 73" id="ar"/><path fill="#333" d="M85-194c31 0 48 13 60 33l-1-100h32l1 261h-30c-2-10 0-23-3-31C134-8 116 4 85 4 32 4 16-35 15-94c0-66 23-100 70-100zm9 24c-40 0-46 34-46 75 0 40 6 74 45 74 42 0 51-32 51-76 0-42-9-74-50-73" id="as"/><path fill="#333" d="M177-190C167-65 218 103 67 71c-23-6-38-20-44-43l32-5c15 47 100 32 89-28v-30C133-14 115 1 83 1 29 1 15-40 15-95c0-56 16-97 71-98 29-1 48 16 59 35 1-10 0-23 2-32h30zM94-22c36 0 50-32 50-73 0-42-14-75-50-75-39 0-46 34-46 75s6 73 46 73" id="at"/><g id="x"><use transform="matrix(0.05,0,0,0.05,0,0)" xlink:href="#M"/><use transform="matrix(0.05,0,0,0.05,5,0)" xlink:href="#an"/><use transform="matrix(0.05,0,0,0.05,10.95,0)" xlink:href="#N"/><use transform="matrix(0.05,0,0,0.05,20.95,0)" xlink:href="#aq"/><use transform="matrix(0.05,0,0,0.05,30.950000000000003,0)" xlink:href="#I"/><use transform="matrix(0.05,0,0,0.05,39.95,0)" xlink:href="#J"/><use transform="matrix(0.05,0,0,0.05,49.95,0)" xlink:href="#H"/><use transform="matrix(0.05,0,0,0.05,59.95,0)" xlink:href="#an"/><use transform="matrix(0.05,0,0,0.05,65.9,0)" xlink:href="#M"/><use transform="matrix(0.05,0,0,0.05,70.9,0)" xlink:href="#ap"/><use transform="matrix(0.05,0,0,0.05,76.85000000000001,0)" xlink:href="#ar"/><use transform="matrix(0.05,0,0,0.05,86.85000000000001,0)" xlink:href="#an"/><use transform="matrix(0.05,0,0,0.05,92.80000000000001,0)" xlink:href="#am"/><use transform="matrix(0.05,0,0,0.05,96.75000000000001,0)" xlink:href="#as"/><use transform="matrix(0.05,0,0,0.05,106.75,0)" xlink:href="#at"/><use transform="matrix(0.05,0,0,0.05,116.75,0)" xlink:href="#K"/><use transform="matrix(0.05,0,0,0.05,126.75,0)" xlink:href="#ap"/><use transform="matrix(0.05,0,0,0.05,132.70000000000002,0)" xlink:href="#O"/><use transform="matrix(0.05,0,0,0.05,142.70000000000002,0)" xlink:href="#I"/><use transform="matrix(0.05,0,0,0.05,151.70000000000002,0)" xlink:href="#K"/><use transform="matrix(0.05,0,0,0.05,161.70000000000002,0)" xlink:href="#an"/></g><path fill="#333" d="M68-38c1 34 0 65-14 84H32c9-13 17-26 17-46H33v-38h35" id="au"/><g id="y"><use transform="matrix(0.05,0,0,0.05,0,0)" xlink:href="#I"/><use transform="matrix(0.05,0,0,0.05,9,0)" xlink:href="#K"/><use transform="matrix(0.05,0,0,0.05,19,0)" xlink:href="#P"/><use transform="matrix(0.05,0,0,0.05,22.95,0)" xlink:href="#K"/><use transform="matrix(0.05,0,0,0.05,32.95,0)" xlink:href="#L"/><use transform="matrix(0.05,0,0,0.05,41.95,0)" xlink:href="#M"/><use transform="matrix(0.05,0,0,0.05,46.95,0)" xlink:href="#au"/></g><g id="z"><use transform="matrix(0.05,0,0,0.05,0,0)" xlink:href="#am"/><use transform="matrix(0.05,0,0,0.05,3.95,0)" xlink:href="#aq"/><use transform="matrix(0.05,0,0,0.05,13.949999999999998,0)" xlink:href="#I"/><use transform="matrix(0.05,0,0,0.05,22.95,0)" xlink:href="#K"/><use transform="matrix(0.05,0,0,0.05,32.95,0)" xlink:href="#an"/><use transform="matrix(0.05,0,0,0.05,38.900000000000006,0)" xlink:href="#M"/><use transform="matrix(0.05,0,0,0.05,43.900000000000006,0)" xlink:href="#au"/></g><g id="A"><use transform="matrix(0.05,0,0,0.05,0,0)" xlink:href="#O"/><use transform="matrix(0.05,0,0,0.05,10,0)" xlink:href="#J"/><use transform="matrix(0.05,0,0,0.05,20,0)" xlink:href="#as"/><use transform="matrix(0.05,0,0,0.05,30,0)" xlink:href="#N"/><use transform="matrix(0.05,0,0,0.05,40,0)" xlink:href="#M"/><use transform="matrix(0.05,0,0,0.05,45,0)" xlink:href="#K"/><use transform="matrix(0.05,0,0,0.05,55,0)" xlink:href="#au"/></g><g id="B"><use transform="matrix(0.05,0,0,0.05,0,0)" xlink:href="#as"/><use transform="matrix(0.05,0,0,0.05,10,0)" xlink:href="#K"/><use transform="matrix(0.05,0,0,0.05,20,0)" xlink:href="#P"/><use transform="matrix(0.05,0,0,0.05,23.95,0)" xlink:href="#K"/><use transform="matrix(0.05,0,0,0.05,33.95,0)" xlink:href="#M"/><use transform="matrix(0.05,0,0,0.05,38.95,0)" xlink:href="#K"/></g><g id="C"><use transform="matrix(0.05,0,0,0.05,0,0)" xlink:href="#I"/><use transform="matrix(0.05,0,0,0.05,9,0)" xlink:href="#K"/><use transform="matrix(0.05,0,0,0.05,19,0)" xlink:href="#P"/><use transform="matrix(0.05,0,0,0.05,22.95,0)" xlink:href="#K"/><use transform="matrix(0.05,0,0,0.05,32.95,0)" xlink:href="#L"/><use transform="matrix(0.05,0,0,0.05,41.95,0)" xlink:href="#M"/></g><g id="D"><use transform="matrix(0.05,0,0,0.05,0,0)" xlink:href="#T"/><use transform="matrix(0.05,0,0,0.05,3.95,0)" xlink:href="#ab"/><use transform="matrix(0.05,0,0,0.05,13.949999999999998,0)" xlink:href="#R"/><use transform="matrix(0.05,0,0,0.05,23.95,0)" xlink:href="#ah"/><use transform="matrix(0.05,0,0,0.05,28.950000000000003,0)" xlink:href="#ak"/><use transform="matrix(0.05,0,0,0.05,38.95,0)" xlink:href="#aa"/><use transform="matrix(0.05,0,0,0.05,48.95,0)" xlink:href="#ac"/><use transform="matrix(0.05,0,0,0.05,58.95,0)" xlink:href="#al"/><use transform="matrix(0.05,0,0,0.05,68.95,0)" xlink:href="#ak"/><use transform="matrix(0.05,0,0,0.05,78.95,0)" xlink:href="#aa"/><use transform="matrix(0.05,0,0,0.05,88.95,0)" xlink:href="#ab"/><use transform="matrix(0.05,0,0,0.05,98.95,0)" xlink:href="#R"/><use transform="matrix(0.05,0,0,0.05,108.95,0)" xlink:href="#ad"/><use transform="matrix(0.05,0,0,0.05,114.9,0)" xlink:href="#W"/><use transform="matrix(0.05,0,0,0.05,119.9,0)" xlink:href="#al"/><use transform="matrix(0.05,0,0,0.05,129.9,0)" xlink:href="#ab"/><use transform="matrix(0.05,0,0,0.05,139.9,0)" xlink:href="#R"/><use transform="matrix(0.05,0,0,0.05,149.9,0)" xlink:href="#W"/><use transform="matrix(0.05,0,0,0.05,154.9,0)" xlink:href="#Z"/></g><g id="E"><use transform="matrix(0.05,0,0,0.05,0,0)" xlink:href="#am"/><use transform="matrix(0.05,0,0,0.05,3.95,0)" xlink:href="#aq"/><use transform="matrix(0.05,0,0,0.05,13.949999999999998,0)" xlink:href="#I"/><use transform="matrix(0.05,0,0,0.05,22.95,0)" xlink:href="#K"/><use transform="matrix(0.05,0,0,0.05,32.95,0)" xlink:href="#an"/><use transform="matrix(0.05,0,0,0.05,38.900000000000006,0)" xlink:href="#M"/></g><g id="F"><use transform="matrix(0.05,0,0,0.05,0,0)" xlink:href="#am"/><use transform="matrix(0.05,0,0,0.05,3.95,0)" xlink:href="#aq"/><use transform="matrix(0.05,0,0,0.05,13.949999999999998,0)" xlink:href="#I"/><use transform="matrix(0.05,0,0,0.05,22.95,0)" xlink:href="#K"/><use transform="matrix(0.05,0,0,0.05,32.95,0)" xlink:href="#an"/><use transform="matrix(0.05,0,0,0.05,38.900000000000006,0)" xlink:href="#M"/><use transform="matrix(0.05,0,0,0.05,43.900000000000006,0)" xlink:href="#au"/></g></defs></g></svg>